REM DIRINDEX 1\3,1\2\4,1\2\5,1\2\6
REM DIRNAME folder01,folder02,folder03,folder04,folder05,folder06
TITLE ""
FILE "051.mp3" MP3
  TRACK 01 AUDIO
    TITLE "4:cjc137_2098"
    INDEX 01 00:00:00
  TRACK 02 AUDIO
    TITLE "0:"
    INDEX 01 00:01:24
  TRACK 03 AUDIO
    TITLE "6:cjc137_2099"
    INDEX 01 00:01:32
  TRACK 04 AUDIO
    TITLE "0:"
    INDEX 01 00:02:55
  TRACK 05 AUDIO
    TITLE "5:cjc137_2100"
    INDEX 01 00:02:59
  TRACK 06 AUDIO
    TITLE "0:"
    INDEX 01 00:04:09
  TRACK 07 AUDIO
    TITLE "4:cjc137_2101"
    INDEX 01 00:05:16
  TRACK 08 AUDIO
    TITLE "0:"
    INDEX 01 00:06:30
  TRACK 09 AUDIO
    TITLE "6:cjc137_2102"
    INDEX 01 00:06:33
  TRACK 10 AUDIO
    TITLE "0:"
    INDEX 01 00:07:19
  TRACK 11 AUDIO
    TITLE "5:cjc137_2103"
    INDEX 01 00:07:25
  TRACK 12 AUDIO
    TITLE "0:"
    INDEX 01 00:08:36
  TRACK 13 AUDIO
    TITLE "4:cjc137_2104"
    INDEX 01 00:09:45
  TRACK 14 AUDIO
    TITLE "0:"
    INDEX 01 00:10:63
  TRACK 15 AUDIO
    TITLE "6:cjc137_2105"
    INDEX 01 00:10:68
  TRACK 16 AUDIO
    TITLE "0:"
    INDEX 01 00:12:22
  TRACK 17 AUDIO
    TITLE "5:cjc137_2106"
    INDEX 01 00:12:28
  TRACK 18 AUDIO
    TITLE "0:"
    INDEX 01 00:13:45
  TRACK 19 AUDIO
    TITLE "4:cjc137_2107"
    INDEX 01 00:14:51
  TRACK 20 AUDIO
    TITLE "0:"
    INDEX 01 00:15:66
  TRACK 21 AUDIO
    TITLE "6:cjc137_2108"
    INDEX 01 00:15:74
  TRACK 22 AUDIO
    TITLE "0:"
    INDEX 01 00:17:45
  TRACK 23 AUDIO
    TITLE "5:cjc137_2109"
    INDEX 01 00:17:53
  TRACK 24 AUDIO
    TITLE "0:"
    INDEX 01 00:18:66
  TRACK 25 AUDIO
    TITLE "4:cjc137_2110"
    INDEX 01 00:20:00
  TRACK 26 AUDIO
    TITLE "0:"
    INDEX 01 00:21:13
  TRACK 27 AUDIO
    TITLE "6:cjc137_2111"
    INDEX 01 00:21:21
  TRACK 28 AUDIO
    TITLE "0:"
    INDEX 01 00:22:27
  TRACK 29 AUDIO
    TITLE "5:cjc137_2112"
    INDEX 01 00:22:34
  TRACK 30 AUDIO
    TITLE "0:"
    INDEX 01 00:23:48
  TRACK 31 AUDIO
    TITLE "4:cjc137_2113"
    INDEX 01 00:24:55
  TRACK 32 AUDIO
    TITLE "0:"
    INDEX 01 00:25:54
  TRACK 33 AUDIO
    TITLE "6:cjc137_2114"
    INDEX 01 00:25:64
  TRACK 34 AUDIO
    TITLE "0:"
    INDEX 01 00:26:64
  TRACK 35 AUDIO
    TITLE "5:cjc137_2115"
    INDEX 01 00:26:71
  TRACK 36 AUDIO
    TITLE "0:"
    INDEX 01 00:27:69
  TRACK 37 AUDIO
    TITLE "4:cjc137_2116"
    INDEX 01 00:29:05
  TRACK 38 AUDIO
    TITLE "0:"
    INDEX 01 00:30:06
  TRACK 39 AUDIO
    TITLE "6:cjc137_2117"
    INDEX 01 00:30:14
  TRACK 40 AUDIO
    TITLE "0:"
    INDEX 01 00:31:06
  TRACK 41 AUDIO
    TITLE "5:cjc137_2118"
    INDEX 01 00:31:14
  TRACK 42 AUDIO
    TITLE "0:"
    INDEX 01 00:32:15
  TRACK 43 AUDIO
    TITLE "4:cjc137_2119"
    INDEX 01 00:33:22
  TRACK 44 AUDIO
    TITLE "0:"
    INDEX 01 00:34:40
  TRACK 45 AUDIO
    TITLE "6:cjc137_2120"
    INDEX 01 00:34:45
  TRACK 46 AUDIO
    TITLE "0:"
    INDEX 01 00:35:45
  TRACK 47 AUDIO
    TITLE "5:cjc137_2121"
    INDEX 01 00:35:55
  TRACK 48 AUDIO
    TITLE "0:"
    INDEX 01 00:36:70
  TRACK 49 AUDIO
    TITLE "4:cjc137_2122"
    INDEX 01 00:38:02
  TRACK 50 AUDIO
    TITLE "0:"
    INDEX 01 00:39:27
  TRACK 51 AUDIO
    TITLE "6:cjc137_2123"
    INDEX 01 00:39:35
  TRACK 52 AUDIO
    TITLE "0:"
    INDEX 01 00:40:66
  TRACK 53 AUDIO
    TITLE "5:cjc137_2124"
    INDEX 01 00:40:72
  TRACK 54 AUDIO
    TITLE "0:"
    INDEX 01 00:42:21
  TRACK 55 AUDIO
    TITLE "4:cjc137_2125"
    INDEX 01 00:43:31
  TRACK 56 AUDIO
    TITLE "0:"
    INDEX 01 00:44:30
  TRACK 57 AUDIO
    TITLE "6:cjc137_2126"
    INDEX 01 00:44:34
  TRACK 58 AUDIO
    TITLE "0:"
    INDEX 01 00:45:18
  TRACK 59 AUDIO
    TITLE "5:cjc137_2127"
    INDEX 01 00:45:26
  TRACK 60 AUDIO
    TITLE "0:"
    INDEX 01 00:46:25
  TRACK 61 AUDIO
    TITLE "4:cjc137_2128"
    INDEX 01 00:47:32
  TRACK 62 AUDIO
    TITLE "0:"
    INDEX 01 00:48:49
  TRACK 63 AUDIO
    TITLE "6:cjc137_2129"
    INDEX 01 00:48:63
  TRACK 64 AUDIO
    TITLE "0:"
    INDEX 01 00:49:63
  TRACK 65 AUDIO
    TITLE "5:cjc137_2130"
    INDEX 01 00:49:69
  TRACK 66 AUDIO
    TITLE "0:"
    INDEX 01 00:51:13
  TRACK 67 AUDIO
    TITLE "4:cjc137_2131"
    INDEX 01 00:52:24
  TRACK 68 AUDIO
    TITLE "0:"
    INDEX 01 00:53:25
  TRACK 69 AUDIO
    TITLE "6:cjc137_2132"
    INDEX 01 00:53:31
  TRACK 70 AUDIO
    TITLE "0:"
    INDEX 01 00:54:21
  TRACK 71 AUDIO
    TITLE "5:cjc137_2133"
    INDEX 01 00:54:27
  TRACK 72 AUDIO
    TITLE "0:"
    INDEX 01 00:55:28
  TRACK 73 AUDIO
    TITLE "4:cjc137_2134"
    INDEX 01 00:56:33
  TRACK 74 AUDIO
    TITLE "0:"
    INDEX 01 00:57:37
  TRACK 75 AUDIO
    TITLE "6:cjc137_2135"
    INDEX 01 00:57:43
  TRACK 76 AUDIO
    TITLE "0:"
    INDEX 01 00:58:58
  TRACK 77 AUDIO
    TITLE "5:cjc137_2136"
    INDEX 01 00:58:64
  TRACK 78 AUDIO
    TITLE "0:"
    INDEX 01 00:59:67
  TRACK 79 AUDIO
    TITLE "4:cjc137_2137"
    INDEX 01 01:00:74
  TRACK 80 AUDIO
    TITLE "0:"
    INDEX 01 01:02:03
  TRACK 81 AUDIO
    TITLE "6:cjc137_2138"
    INDEX 01 01:02:12
  TRACK 82 AUDIO
    TITLE "0:"
    INDEX 01 01:03:24
  TRACK 83 AUDIO
    TITLE "5:cjc137_2139"
    INDEX 01 01:03:33
  TRACK 84 AUDIO
    TITLE "0:"
    INDEX 01 01:04:37
